<svg xmlns="http://www.w3.org/2000/svg" width="1200" height="320" viewBox="0 0 1200 320" fill="none">
  <rect width="1200" height="320" fill="#f8f1e5"/>
  <g stroke="#d8c3a5" stroke-width="4" opacity="0.7">
    <path d="M40 280c40-120 120-180 200-180s160 60 200 180"/>
    <path d="M440 280c40-120 120-180 200-180s160 60 200 180"/>
    <path d="M840 280c40-120 120-180 200-180s160 60 200 180"/>
  </g>
  <g stroke="#b28b5a" stroke-width="2" opacity="0.6">
    <path d="M70 260c30-90 90-135 150-135s120 45 150 135"/>
    <path d="M470 260c30-90 90-135 150-135s120 45 150 135"/>
    <path d="M870 260c30-90 90-135 150-135s120 45 150 135"/>
  </g>
</svg>
