<svg xmlns="http://www.w3.org/2000/svg" width="240" height="240" viewBox="0 0 240 240" fill="none">
  <defs>
    <linearGradient id="fur" x1="0" y1="0" x2="1" y2="1">
      <stop offset="0" stop-color="#f2e6d5"/>
      <stop offset="1" stop-color="#e7d6bf"/>
    </linearGradient>
    <linearGradient id="ear" x1="0" y1="0" x2="0" y2="1">
      <stop offset="0" stop-color="#f6d9dc"/>
      <stop offset="1" stop-color="#e9b9bf"/>
    </linearGradient>
  </defs>
  <g>
    <circle cx="140" cy="92" r="56" fill="url(#fur)" stroke="#c9b399" stroke-width="3"/>
    <ellipse cx="108" cy="36" rx="18" ry="50" fill="url(#fur)" stroke="#c9b399" stroke-width="3" transform="rotate(-12 108 36)"/>
    <ellipse cx="168" cy="30" rx="18" ry="52" fill="url(#fur)" stroke="#c9b399" stroke-width="3" transform="rotate(10 168 30)"/>
    <ellipse cx="112" cy="44" rx="9" ry="28" fill="url(#ear)" opacity="0.9" transform="rotate(-12 112 44)"/>
    <ellipse cx="166" cy="40" rx="9" ry="30" fill="url(#ear)" opacity="0.9" transform="rotate(10 166 40)"/>
    <circle cx="128" cy="90" r="6" fill="#3d2c1f"/>
    <circle cx="158" cy="90" r="6" fill="#3d2c1f"/>
    <ellipse cx="142" cy="112" rx="10" ry="8" fill="#8b5a2b"/>
    <path d="M132 122c6 6 14 6 20 0" stroke="#8b5a2b" stroke-width="3" stroke-linecap="round"/>
    <circle cx="110" cy="106" r="8" fill="#e6b4a9" opacity="0.7"/>
    <circle cx="170" cy="106" r="8" fill="#e6b4a9" opacity="0.7"/>
  </g>
  <g>
    <ellipse cx="86" cy="172" rx="28" ry="20" fill="url(#fur)" stroke="#c9b399" stroke-width="3" transform="rotate(-18 86 172)"/>
    <ellipse cx="182" cy="164" rx="26" ry="18" fill="url(#fur)" stroke="#c9b399" stroke-width="3" transform="rotate(8 182 164)"/>
    <path d="M64 170c14 10 30 14 46 12" stroke="#b99b79" stroke-width="6" stroke-linecap="round"/>
    <path d="M160 164c14 8 28 10 42 6" stroke="#b99b79" stroke-width="6" stroke-linecap="round"/>
  </g>
</svg>
